<svg width="29" height="23" viewBox="0 0 29 23" fill="none" xmlns="http://www.w3.org/2000/svg">
<path d="M1.20431 12.5513L10.2695 22.0654C10.7578 22.5779 11.5724 22.5877 12.073 22.0871C12.5651 21.595 12.5651 20.7971 12.073 20.3049L2.78064 11.0126C2.33946 10.5714 1.62028 10.5844 1.19531 11.0412C0.798484 11.4677 0.802429 12.1295 1.20431 12.5513Z" fill="white"/>
<path d="M11.9152 2.68602L2.5668 12.0344C2.22735 12.3738 1.68857 12.4083 1.30869 12.1148C0.866905 11.7734 0.811234 11.1274 1.18811 10.7155L10.1129 0.961969C10.5926 0.437729 11.4127 0.419545 11.9152 0.922007C12.4023 1.40913 12.4023 2.1989 11.9152 2.68602Z" fill="white"/>
<path fill-rule="evenodd" clip-rule="evenodd" d="M26.9571 10.2051C27.6616 10.2051 28.2327 10.7762 28.2327 11.4807C28.2327 12.1852 27.6616 12.7563 26.9571 12.7563H2.08227C1.37776 12.7563 0.806641 12.1852 0.806641 11.4807C0.806641 10.7762 1.37776 10.2051 2.08227 10.2051H26.9571Z" fill="white"/>
</svg>
