<svg width="16" height="23" viewBox="0 0 16 23" fill="none" xmlns="http://www.w3.org/2000/svg">
<rect x="2.93335" y="1" width="10.1333" height="15" rx="5.06667" fill="#FF0B8F" stroke="#FF0B8F" stroke-width="2"/>
<path d="M15 14C15 14.7879 14.8189 15.5681 14.4672 16.2961C14.1154 17.0241 13.5998 17.6855 12.9497 18.2426C12.2997 18.7998 11.5281 19.2417 10.6788 19.5433C9.8295 19.8448 8.91925 20 8 20C7.08075 20 6.17049 19.8448 5.32122 19.5433C4.47194 19.2417 3.70026 18.7998 3.05025 18.2426C2.40024 17.6855 1.88463 17.0241 1.53284 16.2961C1.18106 15.5681 1 14.7879 1 14" stroke="#FF0B8F" stroke-width="2"/>
<rect x="6.6001" y="20" width="2.8" height="3" fill="#FF0B8F"/>
<path d="M6.13341 11C5.87568 11 5.66675 10.7911 5.66675 10.5333V5.46667C5.66675 5.20893 5.87568 5 6.13341 5V5C6.39115 5 6.60008 5.20893 6.60008 5.46667V10.5333C6.60008 10.7911 6.39115 11 6.13341 11V11Z" fill="#121212"/>
<path d="M8.00011 11C7.74238 11 7.53345 10.7911 7.53345 10.5333V5.46667C7.53345 5.20893 7.74238 5 8.00011 5V5C8.25785 5 8.46678 5.20893 8.46678 5.46667V10.5333C8.46678 10.7911 8.25785 11 8.00011 11V11Z" fill="#121212"/>
<path d="M9.86657 11C9.60884 11 9.3999 10.7911 9.3999 10.5333V5.46667C9.3999 5.20893 9.60884 5 9.86657 5V5C10.1243 5 10.3332 5.20893 10.3332 5.46667V10.5333C10.3332 10.7911 10.1243 11 9.86657 11V11Z" fill="#121212"/>
</svg>
