<svg width="22" height="22" viewBox="0 0 22 22" fill="none" xmlns="http://www.w3.org/2000/svg">
<path d="M20.6414 1.58246C19.2802 0.111191 17.1399 -1.08324 14.6738 1.58246L4.67598 12.3883C4.599 12.463 3.67886 13.3969 3.64649 14.7515C3.62634 15.5883 3.94361 16.3682 4.59109 17.0681C5.1436 17.6653 5.80475 17.9756 6.50115 17.9662C7.76301 17.9499 8.70401 16.9219 8.80617 16.8052L16.3277 8.67595C16.609 8.3719 16.6097 7.88044 16.3277 7.57639C16.0464 7.27234 15.5917 7.27234 15.3104 7.57639L7.7774 15.7189C7.59826 15.918 7.03712 16.4063 6.47741 16.411C6.17093 16.4133 5.88676 16.2679 5.60835 15.9677C5.24864 15.5789 5.07741 15.1979 5.08461 14.8005C5.09684 14.0952 5.66374 13.5198 5.6695 13.5128L15.691 2.68202C16.6637 1.63145 17.8917 0.80872 19.6241 2.68202C20.2586 3.36788 20.573 4.07863 20.5608 4.7956C20.5399 5.97371 19.6565 6.86953 19.6471 6.87886L8.41049 18.8885C8.38603 18.9149 6.99683 20.4329 5.30547 20.4453C4.41555 20.4515 3.57023 20.0285 2.79326 19.1894C-0.143418 16.0152 2.60477 12.8471 2.72275 12.7142L11.3651 3.37177C11.6464 3.06772 11.6464 2.57626 11.3651 2.27143C11.0831 1.96738 10.6285 1.96816 10.3479 2.27143L1.6947 11.6247C0.343629 13.1457 -1.36212 16.897 1.77528 20.289C2.83858 21.4376 4.03354 22.013 5.32705 21.9998C7.62776 21.978 9.36156 20.0627 9.43423 19.9811L20.6385 8.00564C20.6701 7.97531 21.9565 6.69456 21.9989 4.84537C22.0255 3.68204 21.5687 2.58404 20.6414 1.58246Z" fill="#FF0B8F"/>
</svg>
