<svg width="302" height="251" viewBox="0 0 302 251" fill="none" xmlns="http://www.w3.org/2000/svg">
<path d="M50.9843 129.783C30.1616 104.967 33.3984 67.9699 58.214 47.1471C83.0296 26.3243 120.027 29.5611 140.85 54.3767L231.235 162.094L141.369 237.5L50.9843 129.783Z" fill="#F489A8"/>
<path d="M249.247 146.913C274.063 126.09 277.3 89.0927 256.477 64.277C235.654 39.4614 198.657 36.2246 173.841 57.0473L66.1246 147.432L141.531 237.298L249.247 146.913Z" fill="#F489A8"/>
<path d="M231.096 162.664L141.088 238.19L50.8347 130.63C29.9392 105.728 33.1873 68.6013 58.0896 47.7058V47.7058C82.9249 26.8665 119.936 30.0336 140.869 54.7894L155 71.5" stroke="#0C131D" stroke-width="4"/>
<path d="M65.2841 147.866L140.992 238.091L248.365 147.995C273.459 126.938 276.785 89.5462 255.801 64.3908V64.3908C235.078 39.5481 198.291 35.8422 173.03 56.0525L152.892 72.1629" stroke="#0C131D" stroke-width="4"/>
<path d="M75.7797 128.666C60.4374 110.382 62.8223 83.122 81.1066 67.7797C99.3908 52.4374 126.651 54.8223 141.993 73.1066L208.589 152.473L142.376 208.032L75.7797 128.666Z" fill="#EE3962"/>
<path d="M221.861 141.287C240.145 125.945 242.53 98.6855 227.188 80.4012C211.845 62.1169 184.586 59.732 166.301 75.0743L86.9351 141.67L142.495 207.884L221.861 141.287Z" fill="#EE3962"/>
<path d="M120.275 125.986C114.048 118.565 115.016 107.502 122.437 101.275C129.858 95.0478 140.921 96.0158 147.148 103.437L174.177 135.648L147.304 158.198L120.275 125.986Z" fill="white"/>
<path d="M179.563 131.109C186.984 124.882 187.952 113.818 181.725 106.397C175.498 98.9764 164.435 98.0085 157.014 104.235L124.802 131.264L147.352 158.137L179.563 131.109Z" fill="white"/>
<path d="M100.315 96.3877C99.037 94.8643 99.2357 92.5931 100.759 91.3148C102.282 90.0365 104.554 90.2352 105.832 91.7586L111.381 98.3712L105.864 103L100.315 96.3877Z" fill="white"/>
<path d="M112.486 97.4393C114.01 96.161 114.208 93.8898 112.93 92.3664C111.652 90.843 109.381 90.6443 107.857 91.9226L101.245 97.4712L105.874 102.988L112.486 97.4393Z" fill="white"/>
<path d="M194.069 141.845C192.791 140.321 192.99 138.05 194.513 136.772C196.036 135.494 198.308 135.692 199.586 137.216L205.135 143.828L199.618 148.457L194.069 141.845Z" fill="white"/>
<path d="M206.24 142.896C207.764 141.618 207.962 139.347 206.684 137.823C205.406 136.3 203.135 136.101 201.611 137.38L194.999 142.928L199.628 148.445L206.24 142.896Z" fill="white"/>
<path d="M259.78 37.0305C259.055 35.1785 259.969 33.0899 261.821 32.3654C263.673 31.641 265.762 32.555 266.486 34.407L269.631 42.4459L262.924 45.0695L259.78 37.0305Z" fill="white"/>
<path d="M270.977 41.9162C272.829 41.1918 273.743 39.1031 273.018 37.2511C272.294 35.3991 270.205 34.4851 268.353 35.2096L260.314 38.3542L262.938 45.0609L270.977 41.9162Z" fill="white"/>
<path d="M211.069 201.844C209.79 200.321 209.989 198.05 211.512 196.771C213.036 195.493 215.307 195.692 216.585 197.215L222.134 203.828L216.617 208.457L211.069 201.844Z" fill="white"/>
<path d="M223.24 202.896C224.763 201.618 224.962 199.346 223.684 197.823C222.405 196.3 220.134 196.101 218.611 197.379L211.998 202.928L216.627 208.445L223.24 202.896Z" fill="white"/>
<path d="M34.0874 152.565C32.4186 151.483 31.9427 149.253 33.0244 147.585C34.106 145.916 36.3357 145.44 38.0045 146.522L45.248 151.217L41.331 157.26L34.0874 152.565Z" fill="white"/>
<path d="M46.032 150.002C47.1136 148.333 46.6377 146.103 44.9689 145.022C43.3002 143.94 41.0705 144.416 39.9888 146.085L35.2937 153.328L41.3368 157.245L46.032 150.002Z" fill="white"/>
</svg>
